<svg xmlns="http://www.w3.org/2000/svg" width="242.094" height="242.094" viewBox="0 0 242.094 242.094">
  <path id="Intersection_9" data-name="Intersection 9" d="M133.161,242.43a2.665,2.665,0,1,1,5.27.565q-2.5.327-5.025.552A2.658,2.658,0,0,1,133.161,242.43Zm-26.592.565a2.665,2.665,0,1,1,5.026.552Q109.066,243.322,106.569,242.995Zm79.894-27.215a2.665,2.665,0,1,1,2.665,2.664A2.665,2.665,0,0,1,186.463,215.78Zm-26.652,0a2.665,2.665,0,1,1,2.665,2.664A2.665,2.665,0,0,1,159.811,215.78Zm-26.651,0a2.665,2.665,0,1,1,2.664,2.664A2.664,2.664,0,0,1,133.161,215.78Zm-26.652,0a2.665,2.665,0,1,1,2.665,2.664A2.664,2.664,0,0,1,106.509,215.78Zm-26.651,0a2.665,2.665,0,1,1,2.665,2.664A2.665,2.665,0,0,1,79.858,215.78Zm-26.652,0a2.665,2.665,0,1,1,2.665,2.664A2.665,2.665,0,0,1,53.206,215.78Zm159.908-26.652a2.665,2.665,0,1,1,2.665,2.665A2.665,2.665,0,0,1,213.114,189.128Zm-26.652,0a2.665,2.665,0,1,1,2.665,2.665A2.666,2.666,0,0,1,186.463,189.128Zm-26.652,0a2.665,2.665,0,1,1,2.665,2.665A2.666,2.666,0,0,1,159.811,189.128Zm-26.651,0a2.665,2.665,0,1,1,2.664,2.665A2.665,2.665,0,0,1,133.161,189.128Zm-26.652,0a2.665,2.665,0,1,1,2.665,2.665A2.665,2.665,0,0,1,106.509,189.128Zm-26.651,0a2.665,2.665,0,1,1,2.665,2.665A2.666,2.666,0,0,1,79.858,189.128Zm-26.652,0a2.665,2.665,0,1,1,2.665,2.665A2.666,2.666,0,0,1,53.206,189.128Zm-26.652,0a2.665,2.665,0,1,1,2.665,2.665A2.666,2.666,0,0,1,26.555,189.128Zm186.56-26.652a2.665,2.665,0,1,1,2.665,2.665A2.665,2.665,0,0,1,213.114,162.477Zm-26.652,0a2.665,2.665,0,1,1,2.665,2.665A2.666,2.666,0,0,1,186.463,162.477Zm-26.652,0a2.665,2.665,0,1,1,2.665,2.665A2.666,2.666,0,0,1,159.811,162.477Zm-26.651,0a2.665,2.665,0,1,1,2.664,2.665A2.665,2.665,0,0,1,133.161,162.477Zm-26.652,0a2.665,2.665,0,1,1,2.665,2.665A2.665,2.665,0,0,1,106.509,162.477Zm-26.651,0a2.665,2.665,0,1,1,2.665,2.665A2.666,2.666,0,0,1,79.858,162.477Zm-26.652,0a2.665,2.665,0,1,1,2.665,2.665A2.666,2.666,0,0,1,53.206,162.477Zm-26.652,0a2.665,2.665,0,1,1,2.665,2.665A2.666,2.666,0,0,1,26.555,162.477Zm213.211-26.652a2.666,2.666,0,0,1,3.781-2.42q-.225,2.529-.552,5.025a2.667,2.667,0,0,1-3.229-2.605Zm-26.651,0a2.665,2.665,0,1,1,2.665,2.665A2.664,2.664,0,0,1,213.114,135.825Zm-26.652,0a2.665,2.665,0,1,1,2.665,2.665A2.665,2.665,0,0,1,186.463,135.825Zm-26.652,0a2.665,2.665,0,1,1,2.665,2.665A2.665,2.665,0,0,1,159.811,135.825Zm-26.651,0a2.665,2.665,0,1,1,2.664,2.665A2.664,2.664,0,0,1,133.161,135.825Zm-26.652,0a2.665,2.665,0,1,1,2.665,2.665A2.664,2.664,0,0,1,106.509,135.825Zm-26.651,0a2.665,2.665,0,1,1,2.665,2.665A2.665,2.665,0,0,1,79.858,135.825Zm-26.652,0a2.665,2.665,0,1,1,2.665,2.665A2.665,2.665,0,0,1,53.206,135.825Zm-26.652,0a2.665,2.665,0,1,1,2.665,2.665A2.665,2.665,0,0,1,26.555,135.825ZM2,138.431q-.327-2.5-.552-5.026A2.665,2.665,0,1,1,2,138.431Zm237.761-29.256a2.667,2.667,0,0,1,3.229-2.605q.327,2.5.552,5.026a2.666,2.666,0,0,1-3.781-2.42Zm-26.651,0a2.665,2.665,0,1,1,2.665,2.664A2.664,2.664,0,0,1,213.114,109.174Zm-26.652,0a2.665,2.665,0,1,1,2.665,2.664A2.665,2.665,0,0,1,186.463,109.174Zm-26.652,0a2.665,2.665,0,1,1,2.665,2.664A2.665,2.665,0,0,1,159.811,109.174Zm-26.651,0a2.665,2.665,0,1,1,2.664,2.664A2.664,2.664,0,0,1,133.161,109.174Zm-26.652,0a2.665,2.665,0,1,1,2.665,2.664A2.664,2.664,0,0,1,106.509,109.174Zm-26.651,0a2.665,2.665,0,1,1,2.665,2.664A2.665,2.665,0,0,1,79.858,109.174Zm-26.652,0a2.665,2.665,0,1,1,2.665,2.664A2.665,2.665,0,0,1,53.206,109.174Zm-26.652,0a2.665,2.665,0,1,1,2.665,2.664A2.665,2.665,0,0,1,26.555,109.174Zm-25.1,2.42q.225-2.529.552-5.026a2.665,2.665,0,1,1-.552,5.026ZM213.114,82.523a2.665,2.665,0,1,1,2.665,2.665A2.665,2.665,0,0,1,213.114,82.523Zm-26.652,0a2.665,2.665,0,1,1,2.665,2.665A2.666,2.666,0,0,1,186.463,82.523Zm-26.652,0a2.665,2.665,0,1,1,2.665,2.665A2.666,2.666,0,0,1,159.811,82.523Zm-26.651,0a2.665,2.665,0,1,1,2.664,2.665A2.665,2.665,0,0,1,133.161,82.523Zm-26.652,0a2.665,2.665,0,1,1,2.665,2.665A2.665,2.665,0,0,1,106.509,82.523Zm-26.651,0a2.665,2.665,0,1,1,2.665,2.665A2.666,2.666,0,0,1,79.858,82.523Zm-26.652,0a2.665,2.665,0,1,1,2.665,2.665A2.666,2.666,0,0,1,53.206,82.523Zm-26.652,0a2.665,2.665,0,1,1,2.665,2.665A2.666,2.666,0,0,1,26.555,82.523Zm186.56-26.652a2.665,2.665,0,1,1,2.665,2.665A2.665,2.665,0,0,1,213.114,55.871Zm-26.652,0a2.665,2.665,0,1,1,2.665,2.665A2.666,2.666,0,0,1,186.463,55.871Zm-26.652,0a2.665,2.665,0,1,1,2.665,2.665A2.666,2.666,0,0,1,159.811,55.871Zm-26.651,0a2.665,2.665,0,1,1,2.664,2.665A2.665,2.665,0,0,1,133.161,55.871Zm-26.652,0a2.665,2.665,0,1,1,2.665,2.665A2.665,2.665,0,0,1,106.509,55.871Zm-26.651,0a2.665,2.665,0,1,1,2.665,2.665A2.666,2.666,0,0,1,79.858,55.871Zm-26.652,0a2.665,2.665,0,1,1,2.665,2.665A2.666,2.666,0,0,1,53.206,55.871Zm-26.652,0a2.665,2.665,0,1,1,2.665,2.665A2.666,2.666,0,0,1,26.555,55.871ZM186.463,29.22a2.665,2.665,0,1,1,2.665,2.665A2.666,2.666,0,0,1,186.463,29.22Zm-26.652,0a2.665,2.665,0,1,1,2.665,2.665A2.666,2.666,0,0,1,159.811,29.22Zm-26.651,0a2.665,2.665,0,1,1,2.664,2.665A2.665,2.665,0,0,1,133.161,29.22Zm-26.652,0a2.665,2.665,0,1,1,2.665,2.665A2.665,2.665,0,0,1,106.509,29.22Zm-26.651,0a2.665,2.665,0,1,1,2.665,2.665A2.666,2.666,0,0,1,79.858,29.22Zm-26.652,0a2.665,2.665,0,1,1,2.665,2.665A2.666,2.666,0,0,1,53.206,29.22ZM133.161,2.568a2.655,2.655,0,0,1,.244-1.116q2.529.225,5.026.552a2.665,2.665,0,1,1-5.27.564Zm-26.652,0a2.674,2.674,0,0,1,.06-.564q2.5-.327,5.026-.552a2.665,2.665,0,1,1-5.086,1.116Z" transform="translate(-1.453 -1.453)" fill="#f18f2d"/>
</svg>
