<svg xmlns="http://www.w3.org/2000/svg" width="123.726" height="6.426" viewBox="0 0 123.726 6.426">
  <path id="Path_74" data-name="Path 74" d="M6.766-11.679l.85,1.547-2.227.8,2.227.782-.9,1.6L4.9-8.483,5.287-6.12H3.519l.374-2.363L2.057-6.936,1.122-8.551l2.227-.8-2.193-.782.867-1.547,1.87,1.5L3.5-12.546H5.287L4.9-10.183Zm8.636,0,.85,1.547-2.227.8,2.227.782-.9,1.6-1.819-1.53.391,2.363H12.155l.374-2.363L10.693-6.936,9.758-8.551l2.227-.8-2.193-.782.867-1.547,1.87,1.5-.391-2.363h1.785l-.391,2.363Zm8.636,0,.85,1.547-2.227.8,2.227.782-.9,1.6-1.819-1.53.391,2.363H20.791l.374-2.363L19.329-6.936l-.935-1.615,2.227-.8-2.193-.782.867-1.547,1.87,1.5-.391-2.363h1.785l-.391,2.363Zm8.636,0,.85,1.547-2.227.8,2.227.782-.9,1.6L30.8-8.483l.391,2.363H29.427L29.8-8.483,27.965-6.936,27.03-8.551l2.227-.8-2.193-.782.867-1.547,1.87,1.5-.391-2.363h1.785L30.8-10.183Zm19.754,0,.85,1.547-2.227.8,2.227.782-.9,1.6-1.819-1.53.391,2.363H49.181l.374-2.363L47.719-6.936l-.935-1.615,2.227-.8-2.193-.782.867-1.547,1.87,1.5-.391-2.363h1.785l-.391,2.363Zm8.636,0,.85,1.547-2.227.8,2.227.782-.9,1.6-1.819-1.53.391,2.363H57.817l.374-2.363L56.355-6.936,55.42-8.551l2.227-.8-2.193-.782.867-1.547,1.87,1.5L57.8-12.546h1.785l-.391,2.363Zm8.636,0,.85,1.547-2.227.8,2.227.782-.9,1.6L67.83-8.483l.391,2.363H66.453l.374-2.363L64.991-6.936l-.935-1.615,2.227-.8-2.193-.782.867-1.547,1.87,1.5-.391-2.363h1.785l-.391,2.363Zm8.636,0,.85,1.547-2.227.8,2.227.782-.9,1.6-1.819-1.53.391,2.363H75.089l.374-2.363L73.627-6.936l-.935-1.615,2.227-.8-2.193-.782.867-1.547,1.87,1.5-.391-2.363h1.785l-.391,2.363Zm19.754,0,.85,1.547-2.227.8,2.227.782-.9,1.6L96.22-8.483l.391,2.363H94.843l.374-2.363L93.381-6.936l-.935-1.615,2.227-.8-2.193-.782.867-1.547,1.87,1.5-.391-2.363h1.785l-.391,2.363Zm8.636,0,.85,1.547-2.227.8,2.227.782-.9,1.6-1.819-1.53.391,2.363h-1.768l.374-2.363-1.836,1.547-.935-1.615,2.227-.8-2.193-.782.867-1.547,1.87,1.5-.391-2.363h1.785l-.391,2.363Zm8.636,0,.85,1.547-2.227.8,2.227.782-.9,1.6-1.819-1.53.391,2.363h-1.768l.374-2.363-1.836,1.547-.935-1.615,2.227-.8-2.193-.782.867-1.547,1.87,1.5-.391-2.363h1.785l-.391,2.363Zm8.636,0,.85,1.547-2.227.8,2.227.782-.9,1.6-1.819-1.53.391,2.363h-1.768l.374-2.363-1.836,1.547-.935-1.615,2.227-.8-2.193-.782.867-1.547,1.87,1.5-.391-2.363h1.785l-.391,2.363Z" transform="translate(-1.122 12.546)" fill="#fff"/>
</svg>
